FFmpeg version SVN-r25716, Copyright (c) 2000-2010 the FFmpeg developers  built on Nov 10 2010 12:23:18 with gcc 4.1.2 20080704 (Red Hat 4.1.2-48)  configuration: --enable-libmp3lame --enable-shared --disable-mmx --arch=x86_64  libavutil     50.33. 0 / 50.33. 0  libavcore      0.12. 1 /  0.12. 1  libavcodec    52.94. 4 / 52.94. 4  libavformat   52.84. 0 / 52.84. 0  libavdevice   52. 2. 2 / 52. 2. 2  libavfilter    1.59. 0 /  1.59. 0  libswscale     0.12. 0 /  0.12. 0Input #0, avi, from '/RAID10/data/converted_video_files/47662.avi':  Duration: 00:00:10.30, start: 0.000000, bitrate: 20979 kb/s    Stream #0.0: Video: msvideo1, rgb555le, 1024x1024, 20 tbr, 20 tbn, 20 tbc[buffer @ 0xa3f4510] w:1024 h:1024 pixfmt:rgb555le[ffsink @ 0xa411de0] auto-inserting filter 'auto-inserted scaler 0' between the filter 'src' and the filter 'out'[scale @ 0xa412100] w:1024 h:1024 fmt:rgb555le -> w:1024 h:1024 fmt:yuv420p flags:0x4Output #0, flv, to '/RAID10/data/converted_video_files/47662.flv':  Metadata:    encoder         : Lavf52.84.0    Stream #0.0: Video: flv, yuv420p, 1024x1024, q=2-31, 600 kb/s, 1k tbn, 24 tbcStream mapping:  Stream #0.0 -> #0.0Press [q] to stop encodingframe=    8 fps=  0 q=12.3 size=     549kB time=0.37 bitrate=12025.7kbits/s    frame=   18 fps= 15 q=31.0 size=     608kB time=0.88 bitrate=5693.4kbits/s    frame=   29 fps= 17 q=31.0 size=     650kB time=1.46 bitrate=3654.5kbits/s    frame=   39 fps= 17 q=31.0 size=     693kB time=1.96 bitrate=2895.9kbits/s    frame=   45 fps= 16 q=31.0 size=     700kB time=2.25 bitrate=2549.2kbits/s    frame=   55 fps= 16 q=31.0 size=     741kB time=2.75 bitrate=2206.0kbits/s    frame=   61 fps= 16 q=24.8 size=     776kB time=3.04 bitrate=2089.9kbits/s    frame=   69 fps= 16 q=31.0 size=     790kB time=3.46 bitrate=1870.8kbits/s    frame=   80 fps= 16 q=31.0 size=     834kB time=4.00 bitrate=1709.1kbits/s    frame=   91 fps= 17 q=31.0 size=     878kB time=4.54 bitrate=1583.0kbits/s    frame=   99 fps= 17 q=31.0 size=     917kB time=4.96 bitrate=1514.5kbits/s    frame=  107 fps= 17 q=31.0 size=     929kB time=5.33 bitrate=1426.6kbits/s    frame=  117 fps= 16 q=31.0 size=     969kB time=5.83 bitrate=1360.7kbits/s    frame=  122 fps= 16 q=31.0 size=    1003kB time=6.08 bitrate=1350.5kbits/s    frame=  130 fps= 16 q=31.0 size=    1014kB time=6.50 bitrate=1278.3kbits/s    frame=  137 fps= 16 q=31.0 size=    1050kB time=6.83 bitrate=1259.2kbits/s    frame=  148 fps= 16 q=31.0 size=    1093kB time=7.38 bitrate=1214.4kbits/s    frame=  158 fps= 16 q=31.0 size=    1134kB time=7.87 bitrate=1180.0kbits/s    frame=  169 fps= 17 q=24.8 size=    1177kB time=8.46 bitrate=1140.3kbits/s    frame=  179 fps= 17 q=31.0 size=    1194kB time=8.96 bitrate=1092.4kbits/s    frame=  190 fps= 17 q=31.0 size=    1238kB time=9.50 bitrate=1067.5kbits/s    frame=  201 fps= 17 q=31.0 size=    1281kB time=10.04 bitrate=1044.7kbits/s    frame=  206 fps= 17 q=31.0 Lsize=    1315kB time=10.29 bitrate=1047.0kbits/s    video:1312kB audio:0kB global headers:0kB muxing overhead 0.260990%